ply
format ascii 1.0
comment VCGLIB generated
element vertex 64
property float x
property float y
property float z
property float nx
property float ny
property float nz
property uchar red
property uchar green
property uchar blue
property uchar alpha
property float texture_u
property float texture_v
element face 30
property list uchar int vertex_indices
end_header
-0.9999998 1.311342e-07 -1 0 -1 -1.311342e-07 150 150 150 255 0.000000 1.000000
0.9999998 -1.311342e-07 1 0 -1 -1.311342e-07 150 150 150 255 1.000000 0.000000
-0.9999998 -1.311342e-07 1 0 -1 -1.311342e-07 150 150 150 255 0.000000 0.000000
0.6999998 3 -0.6999996 0 0.06982926 -0.997559 150 150 150 255 1.000000 1.000000
-0.4899999 6 -0.4899992 0 0.06982926 -0.997559 150 150 150 255 0.000000 1.000000
0.4899999 6 -0.4899992 0 0.06982926 -0.997559 150 150 150 255 1.000000 1.000000
0.9999998 1.311342e-07 -1 0.9950372 0.09950374 1.304834e-08 150 150 150 255 1.000000 1.000000
0.6999998 3 0.7000003 0.9950372 0.09950374 1.304834e-08 150 150 150 255 1.000000 0.000000
0.9999998 -1.311342e-07 1 0.9950372 0.09950374 1.304834e-08 150 150 150 255 1.000000 0.000000
-0.9999998 -1.311342e-07 1 -0.9950372 0.09950374 1.304834e-08 150 150 150 255 0.000000 0.000000
-0.6999998 3 -0.6999996 -0.9950372 0.09950374 1.304834e-08 150 150 150 255 0.000000 1.000000
-0.9999998 1.311342e-07 -1 -0.9950372 0.09950374 1.304834e-08 150 150 150 255 0.000000 1.000000
-0.9999998 1.311342e-07 -1 0 0.09950385 -0.9950372 150 150 150 255 0.000000 1.000000
0.6999998 3 -0.6999996 0 0.09950385 -0.9950372 150 150 150 255 1.000000 1.000000
0.9999998 1.311342e-07 -1 0 0.09950385 -0.9950372 150 150 150 255 1.000000 1.000000
0.9999998 -1.311342e-07 1 0 0.09950358 0.9950372 150 150 150 255 1.000000 0.000000
-0.6999998 3 0.7000003 0 0.09950358 0.9950372 150 150 150 255 0.000000 0.000000
-0.9999998 -1.311342e-07 1 0 0.09950358 0.9950372 150 150 150 255 0.000000 0.000000
0.6999998 3 0.7000003 0.997559 0.06982915 9.156987e-09 150 150 150 255 1.000000 0.000000
0.4899999 6 -0.4899992 0.997559 0.06982915 9.156987e-09 150 150 150 255 1.000000 1.000000
0.4899999 6 0.4900008 0.997559 0.06982915 9.156987e-09 150 150 150 255 1.000000 0.000000
-0.6999998 3 0.7000003 0 0.069829 0.997559 150 150 150 255 0.000000 0.000000
0.4899999 6 0.4900008 0 0.069829 0.997559 150 150 150 255 1.000000 0.000000
-0.4899999 6 0.4900008 0 0.069829 0.997559 150 150 150 255 0.000000 0.000000
-0.6999998 3 -0.6999996 -0.997559 0.06982915 9.156987e-09 150 150 150 255 0.000000 1.000000
-0.4899999 6 0.4900008 -0.997559 0.06982915 9.156987e-09 150 150 150 255 0.000000 0.000000
-0.4899999 6 -0.4899992 -0.997559 0.06982915 9.156987e-09 150 150 150 255 0.000000 1.000000
-0.4899999 6 -0.4899992 0 0.0975329 -0.9952323 150 150 150 255 0.000000 1.000000
0.196 9 -0.1959988 0 0.0975329 -0.9952323 150 150 150 255 1.000000 1.000000
0.4899999 6 -0.4899992 0 0.0975329 -0.9952323 150 150 150 255 1.000000 1.000000
0.4899999 6 0.4900008 0 0.09753263 0.9952323 150 150 150 255 1.000000 0.000000
-0.196 9 0.1960012 0 0.09753263 0.9952323 150 150 150 255 0.000000 0.000000
-0.4899999 6 0.4900008 0 0.09753263 0.9952323 150 150 150 255 0.000000 0.000000
-0.4899999 6 0.4900008 -0.9952323 0.09753279 1.278988e-08 150 150 150 255 0.000000 0.000000
-0.196 9 -0.1959988 -0.9952323 0.09753279 1.278988e-08 150 150 150 255 0.000000 1.000000
-0.4899999 6 -0.4899992 -0.9952323 0.09753279 1.278988e-08 150 150 150 255 0.000000 1.000000
0.4899999 6 -0.4899992 0.9952323 0.09753279 1.278988e-08 150 150 150 255 1.000000 1.000000
0.196 9 0.1960012 0.9952323 0.09753279 1.278988e-08 150 150 150 255 1.000000 0.000000
0.4899999 6 0.4900008 0.9952323 0.09753279 1.278988e-08 150 150 150 255 1.000000 0.000000
-0.196 9 -0.1959988 -0.9978726 0.06519437 8.549208e-09 150 150 150 255 0.000000 1.000000
-0.196 9 0.1960012 -0.9978726 0.06519437 8.549208e-09 150 150 150 255 0.000000 0.000000
0 12 1.57361e-06 -0.9978726 0.06519437 8.549208e-09 150 150 150 255 0.000000 1.000000
0.196 9 0.1960012 0.9978726 0.06519437 8.549208e-09 150 150 150 255 1.000000 0.000000
0.196 9 -0.1959988 0.9978726 0.06519437 8.549208e-09 150 150 150 255 1.000000 1.000000
0 12 1.57361e-06 0.9978726 0.06519437 8.549208e-09 150 150 150 255 1.000000 0.000000
0.196 9 -0.1959988 0 0.06519448 -0.9978726 150 150 150 255 1.000000 1.000000
-0.196 9 -0.1959988 0 0.06519448 -0.9978726 150 150 150 255 0.000000 1.000000
0 12 1.57361e-06 0 0.06519448 -0.9978726 150 150 150 255 1.000000 1.000000
-0.196 9 0.1960012 0 0.06519421 0.9978726 150 150 150 255 0.000000 0.000000
0.196 9 0.1960012 0 0.06519421 0.9978726 150 150 150 255 1.000000 0.000000
0 12 1.57361e-06 0 0.06519421 0.9978726 150 150 150 255 0.000000 0.000000
-0.6999998 3 0.7000003 -0.9950372 0.09950375 1.304834e-08 150 150 150 255 0.000000 0.000000
-0.6999998 3 -0.6999996 0 0.09950386 -0.9950372 150 150 150 255 0.000000 1.000000
0.6999998 3 0.7000003 0 0.09950359 0.9950372 150 150 150 255 1.000000 0.000000
0.6999998 3 0.7000003 0 0.069829 0.997559 150 150 150 255 1.000000 0.000000
-0.6999998 3 0.7000003 -0.997559 0.06982915 9.156987e-09 150 150 150 255 0.000000 0.000000
0.196 9 0.1960012 0 0.09753262 0.9952323 150 150 150 255 1.000000 0.000000
-0.196 9 0.1960012 -0.9952323 0.09753278 1.278988e-08 150 150 150 255 0.000000 0.000000
0.196 9 -0.1959988 0.9952323 0.09753278 1.278988e-08 150 150 150 255 1.000000 1.000000
-0.6999998 3 -0.6999996 0 0.06982927 -0.997559 150 150 150 255 0.000000 1.000000
0.6999998 3 -0.6999996 0.9950372 0.09950375 1.304834e-08 150 150 150 255 1.000000 1.000000
0.6999998 3 -0.6999996 0.997559 0.06982915 9.156987e-09 150 150 150 255 1.000000 1.000000
-0.196 9 -0.1959988 0 0.09753289 -0.9952323 150 150 150 255 0.000000 1.000000
0.9999998 1.311342e-07 -1 0 -1 -1.311342e-07 150 150 150 255 1.000000 1.000000
3 0 1 2 
3 3 4 5 
3 6 7 8 
3 9 10 11 
3 12 13 14 
3 15 16 17 
3 18 19 20 
3 21 22 23 
3 24 25 26 
3 27 28 29 
3 30 31 32 
3 33 34 35 
3 36 37 38 
3 39 40 41 
3 42 43 44 
3 45 46 47 
3 48 49 50 
3 9 51 10 
3 12 52 13 
3 15 53 16 
3 21 54 22 
3 24 55 25 
3 30 56 31 
3 33 57 34 
3 36 58 37 
3 3 59 4 
3 6 60 7 
3 18 61 19 
3 27 62 28 
3 0 63 1 
