ply
format ascii 1.0
comment VCGLIB generated
element vertex 14
property float x
property float y
property float z
property float nx
property float ny
property float nz
property uchar red
property uchar green
property uchar blue
property uchar alpha
property float texture_u
property float texture_v
element face 12
property list uchar int vertex_indices
end_header
-0.5 0.5 0.5 -0.3333333 0.6666667 0.6666667 150 150 150 255 0.625000 0.500000
0.5 0.5 0.5 0 1 0 150 150 150 255 0.875000 0.500000
0.5 0.5 -0.5 0 1 0 150 150 150 255 0.875000 0.750000
-0.5 0.5 -0.5 -0.8164966 0.4082483 -0.4082483 150 150 150 255 0.625000 0.750000
-0.5 -0.5 -0.5 -0.3333333 -0.6666667 -0.6666667 150 150 150 255 0.375000 0.750000
0.5 0.5 -0.5 0 0 -1 150 150 150 255 0.625000 1.000000
0.5 -0.5 -0.5 0 0 -1 150 150 150 255 0.375000 1.000000
0.5 -0.5 -0.5 1 0 0 150 150 150 255 0.375000 0.000000
0.5 0.5 -0.5 1 0 0 150 150 150 255 0.625000 0.000000
0.5 0.5 0.5 0.8944272 0 0.4472136 150 150 150 255 0.625000 0.250000
0.5 -0.5 0.5 0.4472136 0 0.8944272 150 150 150 255 0.375000 0.250000
0.5 -0.5 0.5 0 -1 0 150 150 150 255 0.125000 0.500000
-0.5 -0.5 0.5 -0.8164966 -0.4082483 0.4082483 150 150 150 255 0.375000 0.500000
0.5 -0.5 -0.5 0 -1 0 150 150 150 255 0.125000 0.750000
3 0 1 2 
3 0 2 3 
3 4 3 5 
3 4 5 6 
3 7 8 9 
3 7 9 10 
3 11 12 4 
3 11 4 13 
3 12 0 3 
3 12 3 4 
3 10 9 0 
3 10 0 12 
