ply
format ascii 1.0
comment VCGLIB generated
element vertex 14
property float x
property float y
property float z
property float nx
property float ny
property float nz
property uchar red
property uchar green
property uchar blue
property uchar alpha
property float texture_u
property float texture_v
element face 12
property list uchar int vertex_indices
end_header
1 0.9999999 -0.001878527 0.6666667 0.6666666 -0.3333334 255 255 0 255 0.625 0.5
1 0.9999999 0.001878439 1 0 -4.371139e-08 255 255 0 255 0.875 0.5
1 -0.9999999 0.001878439 1 0 -4.371139e-08 255 255 0 255 0.875 0.75
1 -0.9999999 -0.001878527 0.4082483 -0.4082483 -0.8164966 255 255 0 255 0.625 0.75
-1 -0.9999999 -0.001878439 -0.6666667 -0.6666667 -0.3333333 255 255 0 255 0.375 0.75
1 -0.9999999 0.001878439 0 -1 -0 255 255 0 255 0.625 1
-1 -0.9999999 0.001878527 0 -1 -0 255 255 0 255 0.375 1
-1 -0.9999999 0.001878527 4.371139e-08 0 1 255 255 0 255 0.375 0
1 -0.9999999 0.001878439 4.371139e-08 0 1 255 255 0 255 0.625 0
1 0.9999999 0.001878439 3.909665e-08 0.4472136 0.8944272 255 255 0 255 0.625 0.25
-1 0.9999999 0.001878527 1.954833e-08 0.8944272 0.4472136 255 255 0 255 0.375 0.25
-1 0.9999999 0.001878527 -1 0 4.371139e-08 255 255 0 255 0.125 0.5
-1 0.9999999 -0.001878439 -0.4082483 0.4082483 -0.8164966 255 255 0 255 0.375 0.5
-1 -0.9999999 0.001878527 -1 0 4.371139e-08 255 255 0 255 0.125 0.75
3 0 1 2 
3 0 2 3 
3 4 3 5 
3 4 5 6 
3 7 8 9 
3 7 9 10 
3 11 12 4 
3 11 4 13 
3 12 0 3 
3 12 3 4 
3 10 9 0 
3 10 0 12 
