ply
format ascii 1.0
comment VCGLIB generated
element vertex 4
property float x
property float y
property float z
property float nx
property float ny
property float nz
property uchar red
property uchar green
property uchar blue
property uchar alpha
property float texture_u
property float texture_v
element face 2
property list uchar int vertex_indices
end_header
-1000.044 -999.9708 0.006496906 0 0 1 255 0 255 255 0 0
999.956 -999.9708 0.006496906 0 0 1 255 0 255 255 1 0
999.956 1000.029 0.006496906 0 0 1 255 0 255 255 1 1
-1000.044 1000.029 0.006496906 0 0 1 255 0 255 255 0 1
3 0 1 2 
3 0 2 3 
